<?xml version="1.0" ?><svg id="Layer_1_1_" style="enable-background:new 0 0 16 16;" version="1.1" viewBox="0 0 16 16" xml:space="preserve" xmlns="http://www.w3.org/2000/svg" xmlns:xlink="http://www.w3.org/1999/xlink" fill="#7b1fa2"><rect height="1" width="3" y="15"/><rect height="1" width="3" y="13"/><rect height="1" width="3" y="11"/><rect height="1" width="3" y="9"/><rect height="1" width="3" x="4" y="15"/><rect height="1" width="3" x="4" y="13"/><rect height="1" width="3" x="4" y="11"/><rect height="1" width="3" x="4" y="9"/><rect height="1" width="3" x="4" y="7"/><rect height="1" width="3" x="4" y="5"/><rect height="1" width="3" x="8" y="15"/><rect height="1" width="3" x="8" y="13"/><rect height="1" width="3" x="8" y="11"/><rect height="1" width="3" x="8" y="9"/><rect height="1" width="3" x="8" y="7"/><rect height="1" width="3" x="8" y="5"/><rect height="1" width="3" x="8" y="3"/><rect height="1" width="3" x="8" y="1"/><rect height="1" width="3" x="12" y="15"/><rect height="1" width="3" x="12" y="13"/><rect height="1" width="3" x="12" y="11"/><rect height="1" width="3" x="12" y="9"/><rect height="1" width="3" x="12" y="7"/><rect height="1" width="3" x="12" y="5"/></svg>